<?xml version="1.0" standalone="no"?><!DOCTYPE svg PUBLIC "-//W3C//DTD SVG 1.1//EN" "http://www.w3.org/Graphics/SVG/1.1/DTD/svg11.dtd"><svg class="icon" width="200px" height="200.00px" viewBox="0 0 1024 1024" version="1.1" xmlns="http://www.w3.org/2000/svg"><path d="M780.8 944c-99.2 0-179.2-80-179.2-179.2s80-179.2 179.2-179.2S960 668.8 960 768s-80 176-179.2 176z m0-316.8c-76.8 0-140.8 64-140.8 140.8s64 140.8 140.8 140.8 140.8-64 140.8-140.8-64-140.8-140.8-140.8z" fill="#19AA8D" /><path d="M793.6 809.6c-9.6 0-19.2-9.6-19.2-19.2v-105.6c0-9.6 9.6-19.2 19.2-19.2s19.2 9.6 19.2 19.2v105.6c0 12.8-6.4 19.2-19.2 19.2z" fill="#F8AC59" /><path d="M796.8 809.6h-80c-9.6 0-19.2-9.6-19.2-19.2s9.6-19.2 19.2-19.2h80c9.6 0 19.2 9.6 19.2 19.2 0 12.8-9.6 19.2-19.2 19.2z" fill="#F8AC59" /><path d="M489.6 899.2H179.2c-70.4 0-131.2-57.6-131.2-131.2V240c0-70.4 57.6-131.2 131.2-131.2h592c70.4 0 131.2 57.6 131.2 131.2v249.6c0 22.4-16 38.4-38.4 38.4s-38.4-16-38.4-38.4V240c0-28.8-25.6-54.4-54.4-54.4H179.2c-28.8 0-54.4 25.6-54.4 54.4V768c0 28.8 25.6 54.4 54.4 54.4h310.4c22.4 0 38.4 16 38.4 38.4s-16 38.4-38.4 38.4z" fill="#19AA8D" /><path d="M864 380.8H96c-9.6 0-19.2-9.6-19.2-19.2s9.6-19.2 19.2-19.2h768c9.6 0 19.2 9.6 19.2 19.2s-9.6 19.2-19.2 19.2z" fill="#19AA8D" /><path d="M243.2 233.6c-12.8 0-19.2-9.6-19.2-19.2V83.2c0-9.6 6.4-19.2 19.2-19.2s19.2 9.6 19.2 19.2v131.2c0 9.6-9.6 19.2-19.2 19.2zM473.6 233.6c-9.6 0-19.2-9.6-19.2-19.2V83.2c0-9.6 9.6-19.2 19.2-19.2s19.2 9.6 19.2 19.2v131.2c0 9.6-9.6 19.2-19.2 19.2zM704 233.6c-9.6 0-19.2-9.6-19.2-19.2V83.2c0-9.6 9.6-19.2 19.2-19.2s19.2 9.6 19.2 19.2v131.2c0 9.6-9.6 19.2-19.2 19.2zM323.2 489.6H230.4c-9.6 0-19.2-9.6-19.2-19.2s9.6-19.2 19.2-19.2h92.8c9.6 0 19.2 9.6 19.2 19.2s-9.6 19.2-19.2 19.2zM521.6 489.6h-92.8c-9.6 0-19.2-9.6-19.2-19.2s9.6-19.2 19.2-19.2h92.8c9.6 0 19.2 9.6 19.2 19.2s-9.6 19.2-19.2 19.2zM716.8 489.6h-92.8c-9.6 0-19.2-9.6-19.2-19.2s9.6-19.2 19.2-19.2h92.8c9.6 0 19.2 9.6 19.2 19.2s-9.6 19.2-19.2 19.2zM323.2 611.2H230.4c-9.6 0-19.2-9.6-19.2-19.2s9.6-19.2 19.2-19.2h92.8c9.6 0 19.2 9.6 19.2 19.2s-9.6 19.2-19.2 19.2zM521.6 611.2h-92.8c-9.6 0-19.2-9.6-19.2-19.2s9.6-19.2 19.2-19.2h92.8c9.6 0 19.2 9.6 19.2 19.2-3.2 9.6-9.6 19.2-19.2 19.2zM323.2 732.8H230.4c-9.6 0-19.2-9.6-19.2-19.2s9.6-19.2 19.2-19.2h92.8c9.6 0 19.2 9.6 19.2 19.2s-9.6 19.2-19.2 19.2z" fill="#F8AC59" /></svg>