<?xml version="1.0" standalone="no"?><!DOCTYPE svg PUBLIC "-//W3C//DTD SVG 1.1//EN" "http://www.w3.org/Graphics/SVG/1.1/DTD/svg11.dtd"><svg class="icon" width="200px" height="200.00px" viewBox="0 0 1024 1024" version="1.1" xmlns="http://www.w3.org/2000/svg"><path fill="#333333" d="M723.2 1020H300.8c-8.8 0-16-7.2-16-16V20c0-8.8 7.2-16 16-16h421.6c8.8 0 16 7.2 16 16v984c0.8 8.8-6.4 16-15.2 16z m-406.4-32h389.6V36H316.8v952zM300.8 918.4H20c-8.8 0-16-7.2-16-16V296c0-8.8 7.2-16 16-16h280.8c8.8 0 16 7.2 16 16v606.4c0 8.8-7.2 16-16 16z m-264.8-32h248.8V312H36v574.4zM1004 918.4H723.2c-8.8 0-16-7.2-16-16V296c0-8.8 7.2-16 16-16h280.8c8.8 0 16 7.2 16 16v606.4c0 8.8-7.2 16-16 16z m-264.8-32h248.8V312H739.2v574.4zM605.6 1012H418.4c-4.8 0-8-3.2-8-8V720.8c0-4.8 3.2-8 8-8h188c4.8 0 8 3.2 8 8v283.2c-0.8 4.8-4 8-8.8 8z m-179.2-16h172V728.8H426.4v267.2zM187.2 451.2h-52.8c-4.8 0-8-3.2-8-8s3.2-8 8-8h52.8c4.8 0 8 3.2 8 8s-4 8-8 8zM187.2 607.2h-52.8c-4.8 0-8-3.2-8-8s3.2-8 8-8h52.8c4.8 0 8 3.2 8 8s-4 8-8 8zM187.2 763.2h-52.8c-4.8 0-8-3.2-8-8s3.2-8 8-8h52.8c4.8 0 8 3.2 8 8 0 4-4 8-8 8zM889.6 451.2h-52.8c-4.8 0-8-3.2-8-8s3.2-8 8-8h52.8c4.8 0 8 3.2 8 8s-3.2 8-8 8zM889.6 607.2h-52.8c-4.8 0-8-3.2-8-8s3.2-8 8-8h52.8c4.8 0 8 3.2 8 8s-3.2 8-8 8zM889.6 763.2h-52.8c-4.8 0-8-3.2-8-8s3.2-8 8-8h52.8c4.8 0 8 3.2 8 8 0 4-3.2 8-8 8zM538.4 451.2h-52.8c-4.8 0-8-3.2-8-8s3.2-8 8-8h52.8c4.8 0 8 3.2 8 8s-3.2 8-8 8zM538.4 607.2h-52.8c-4.8 0-8-3.2-8-8s3.2-8 8-8h52.8c4.8 0 8 3.2 8 8s-3.2 8-8 8zM605.6 224.8H418.4c-4.8 0-8-3.2-8-8s3.2-8 8-8h188c4.8 0 8 3.2 8 8-0.8 4.8-4 8-8.8 8zM512 319.2c-4.8 0-8-3.2-8-8V123.2c0-4.8 3.2-8 8-8s8 3.2 8 8v188c0 4-3.2 8-8 8z" /></svg>